<svg width="65" height="65" viewBox="0 0 65 65" fill="none" xmlns="http://www.w3.org/2000/svg">
<path d="M1.674 59V45.86H3.294V51.476H7.506V45.86H9.126V59H7.506V52.952H3.294V59H1.674ZM15.329 59.18C14.285 59.18 13.463 58.916 12.863 58.388C12.263 57.848 11.963 57.122 11.963 56.21C11.963 55.286 12.263 54.56 12.863 54.032C13.463 53.504 14.273 53.24 15.293 53.24H18.353V52.25C18.353 51.638 18.167 51.17 17.795 50.846C17.435 50.51 16.919 50.342 16.247 50.342C15.659 50.342 15.167 50.468 14.771 50.72C14.375 50.96 14.147 51.29 14.087 51.71H12.467C12.575 50.858 12.977 50.18 13.673 49.676C14.369 49.172 15.239 48.92 16.283 48.92C17.423 48.92 18.323 49.214 18.983 49.802C19.643 50.39 19.973 51.188 19.973 52.196V59H18.389V57.11H18.119L18.389 56.84C18.389 57.56 18.107 58.13 17.543 58.55C16.991 58.97 16.253 59.18 15.329 59.18ZM15.725 57.902C16.493 57.902 17.123 57.71 17.615 57.326C18.107 56.942 18.353 56.45 18.353 55.85V54.446H15.329C14.789 54.446 14.363 54.596 14.051 54.896C13.739 55.196 13.583 55.604 13.583 56.12C13.583 56.672 13.769 57.11 14.141 57.434C14.525 57.746 15.053 57.902 15.725 57.902ZM27.5619 59.18C26.7459 59.18 26.0919 58.964 25.5999 58.532C25.1079 58.088 24.8619 57.488 24.8619 56.732L25.1859 57.11H24.8619V59H23.2419V45.86H24.8619V48.74L24.8259 50.99H25.1859L24.8619 51.368C24.8619 50.624 25.1079 50.03 25.5999 49.586C26.1039 49.142 26.7579 48.92 27.5619 48.92C28.5579 48.92 29.3559 49.25 29.9559 49.91C30.5559 50.57 30.8559 51.47 30.8559 52.61V55.508C30.8559 56.636 30.5559 57.53 29.9559 58.19C29.3559 58.85 28.5579 59.18 27.5619 59.18ZM27.0219 57.776C27.7059 57.776 28.2459 57.572 28.6419 57.164C29.0379 56.756 29.2359 56.168 29.2359 55.4V52.7C29.2359 51.932 29.0379 51.344 28.6419 50.936C28.2459 50.528 27.7059 50.324 27.0219 50.324C26.3619 50.324 25.8339 50.534 25.4379 50.954C25.0539 51.374 24.8619 51.956 24.8619 52.7V55.4C24.8619 56.144 25.0539 56.726 25.4379 57.146C25.8339 57.566 26.3619 57.776 27.0219 57.776ZM38.3549 59.18C37.5389 59.18 36.8849 58.964 36.3929 58.532C35.9009 58.088 35.6549 57.488 35.6549 56.732L35.9789 57.11H35.6549V59H34.0349V45.86H35.6549V48.74L35.6189 50.99H35.9789L35.6549 51.368C35.6549 50.624 35.9009 50.03 36.3929 49.586C36.8969 49.142 37.5509 48.92 38.3549 48.92C39.3509 48.92 40.1489 49.25 40.7489 49.91C41.3489 50.57 41.6489 51.47 41.6489 52.61V55.508C41.6489 56.636 41.3489 57.53 40.7489 58.19C40.1489 58.85 39.3509 59.18 38.3549 59.18ZM37.8149 57.776C38.4989 57.776 39.0389 57.572 39.4349 57.164C39.8309 56.756 40.0289 56.168 40.0289 55.4V52.7C40.0289 51.932 39.8309 51.344 39.4349 50.936C39.0389 50.528 38.4989 50.324 37.8149 50.324C37.1549 50.324 36.6269 50.534 36.2309 50.954C35.8469 51.374 35.6549 51.956 35.6549 52.7V55.4C35.6549 56.144 35.8469 56.726 36.2309 57.146C36.6269 57.566 37.1549 57.776 37.8149 57.776ZM44.7019 59V57.524H48.2119V50.576H45.1519V49.1H49.8319V57.524H53.1619V59H44.7019ZM48.8419 47.318C48.4459 47.318 48.1339 47.216 47.9059 47.012C47.6779 46.808 47.5639 46.532 47.5639 46.184C47.5639 45.824 47.6779 45.542 47.9059 45.338C48.1339 45.122 48.4459 45.014 48.8419 45.014C49.2379 45.014 49.5499 45.122 49.7779 45.338C50.0059 45.542 50.1199 45.824 50.1199 46.184C50.1199 46.532 50.0059 46.808 49.7779 47.012C49.5499 47.216 49.2379 47.318 48.8419 47.318ZM60.4448 59C59.5928 59 58.9268 58.772 58.4468 58.316C57.9788 57.86 57.7448 57.218 57.7448 56.39V50.576H54.9548V49.1H57.7448V46.31H59.3648V49.1H63.3248V50.576H59.3648V56.39C59.3648 57.146 59.7248 57.524 60.4448 57.524H63.1448V59H60.4448Z" fill="black"/>
<path d="M23.5 8.5L44 0L39 19.5L18 27.5L23.5 8.5Z" fill="#3A62F2"/>
<path d="M28.5 15.5L49 7L44 26.5L23 34.5L28.5 15.5Z" fill="#23235F"/>
</svg>
